{"asset":{"version":"2.0","generator":"Unity 2020.3.28f1 glTFast 4.5.0"},"nodes":[{"name":"Floor","mesh":0,"translation":[-13.1574907,-25.3417,-498.032227],"scale":[30,30,30]},{"name":"Floor (1)","mesh":2,"translation":[-13.1574907,-25.3417,-498.032227],"rotation":[0,0,-1,0],"scale":[30,30,30]},{"name":"Floor","children":[0,1],"translation":[1.315749,2.53417,49.8032227],"scale":[0.1,0.1,0.1]},{"name":"Ceiling","mesh":3,"rotation":[0,0,-1,0],"scale":[30,30,30]},{"name":"Ceiling (1)","mesh":4,"rotation":[0,1,0,0],"scale":[30,30,30]},{"name":"Ceiling","children":[3,4],"translation":[0,10,0],"scale":[0.100000009,0.100000009,0.100000009]},{"name":"Plane (1)","mesh":5,"translation":[5,5,0],"rotation":[0.7071068,-0.7071068,0,0]},{"name":"Plane (2)","mesh":6,"translation":[-5,5,0],"rotation":[0,0,-0.7071068,0.7071068]},{"name":"Plane (3)","mesh":7,"translation":[0,5,-5],"rotation":[0.5,-0.5,-0.5,0.5]},{"name":"Plane (4)","mesh":8,"translation":[0,5,5],"rotation":[0.5,-0.5,0.5,-0.5]},{"name":"Plane (5)","mesh":9,"translation":[5,5,0],"rotation":[0,0,-0.7071068,0.7071068]},{"name":"Plane (6)","mesh":10,"translation":[-5,5,0],"rotation":[0.7071068,-0.7071068,0,0]},{"name":"Plane (7)","mesh":11,"translation":[0,5,-5],"rotation":[0.5,-0.5,0.5,-0.5]},{"name":"Plane (8)","mesh":12,"translation":[0,5,5],"rotation":[0.5,-0.5,-0.5,0.5]},{"name":"Walls","children":[6,7,8,9,10,11,12,13],"scale":[3,1,3]},{"name":"Board","mesh":13,"translation":[0,5,14.99],"rotation":[0.7071068,0,0,-0.7071068],"scale":[0.783726037,0.42684,0.366011441]},{"name":"Table Top","mesh":1,"translation":[0,8,0],"scale":[38,2.5,20]},{"name":"Leg","mesh":14,"translation":[-18.5,3.375,7.5],"scale":[1,6.75,2.5]},{"name":"Leg (2)","mesh":15,"translation":[-18.5,3.375,-7.5],"scale":[1,6.75,2.5]},{"name":"Leg (1)","mesh":16,"translation":[18.5,3.375,7.5],"scale":[1,6.75,2.5]},{"name":"Leg (3)","mesh":17,"translation":[18.5,3.375,-7.5],"scale":[1,6.75,2.5]},{"name":"Table","children":[16,17,18,19,20],"translation":[0,0,100]},{"name":"Table Top","mesh":18,"translation":[-1.1,8,0],"scale":[38,2.5,20]},{"name":"Leg","mesh":19,"translation":[-18.5,3.375,7.5],"scale":[1,6.75,2.5]},{"name":"Leg (2)","mesh":20,"translation":[-18.5,3.375,-7.5],"scale":[1,6.75,2.5]},{"name":"Leg (1)","mesh":21,"translation":[18.5,3.375,7.5],"scale":[1,6.75,2.5]},{"name":"Leg (3)","mesh":22,"translation":[18.5,3.375,-7.5],"scale":[1,6.75,2.5]},{"name":"Table (1)","children":[22,23,24,25,26],"translation":[80,0,100]},{"name":"Table Top","mesh":23,"translation":[0,8,0],"scale":[38,2.5,20]},{"name":"Leg","mesh":24,"translation":[-18.5,3.375,7.5],"scale":[1,6.75,2.5]},{"name":"Leg (2)","mesh":25,"translation":[-18.5,3.375,-7.5],"scale":[1,6.75,2.5]},{"name":"Leg (1)","mesh":26,"translation":[18.5,3.375,7.5],"scale":[1,6.75,2.5]},{"name":"Leg (3)","mesh":27,"translation":[18.5,3.375,-7.5],"scale":[1,6.75,2.5]},{"name":"Table (2)","children":[28,29,30,31,32],"translation":[-80,0,100]},{"name":"Table (5)"},{"name":"Table Top","mesh":28,"translation":[0,8,0],"scale":[38,2.5,20]},{"name":"Leg","mesh":29,"translation":[-18.5,3.37499976,7.5],"scale":[1,6.75,2.5]},{"name":"Leg (2)","mesh":30,"translation":[-18.5,3.37499976,-7.5],"scale":[1,6.75,2.5]},{"name":"Leg (1)","mesh":31,"translation":[18.5,3.37499976,7.5],"scale":[1,6.75,2.5]},{"name":"Leg (3)","mesh":32,"translation":[18.5,3.37499976,-7.5],"scale":[1,6.75,2.5]},{"name":"Table Top","mesh":33,"translation":[0,8,0],"scale":[38,2.5,20]},{"name":"Leg","mesh":34,"translation":[-18.5,3.375,7.5],"scale":[1,6.75,2.5]},{"name":"Leg (2)","mesh":35,"translation":[-18.5,3.375,-7.5],"scale":[1,6.75,2.5]},{"name":"Leg (1)","mesh":36,"translation":[18.5,3.375,7.5],"scale":[1,6.75,2.5]},{"name":"Leg (3)","mesh":37,"translation":[18.5,3.375,-7.5],"scale":[1,6.75,2.5]},{"name":"Table (3)","children":[40,41,42,43,44],"translation":[80,0,0]},{"name":"Table Top","mesh":38,"translation":[0,8,0],"scale":[38,2.5,20]},{"name":"Leg","mesh":39,"translation":[-18.5,3.375,7.5],"scale":[1,6.75,2.5]},{"name":"Leg (2)","mesh":40,"translation":[-18.5,3.375,-7.5],"scale":[1,6.75,2.5]},{"name":"Leg (1)","mesh":41,"translation":[18.5,3.375,7.5],"scale":[1,6.75,2.5]},{"name":"Leg (3)","mesh":42,"translation":[18.5,3.375,-7.5],"scale":[1,6.75,2.5]},{"name":"Table (4)","children":[46,47,48,49,50],"translation":[-80,0,0]},{"name":"Table Top","mesh":43,"translation":[0,8,0],"scale":[38,2.5,20]},{"name":"Leg","mesh":44,"translation":[-18.5,3.375,7.5],"scale":[1,6.75,2.5]},{"name":"Leg (2)","mesh":45,"translation":[-18.5,3.375,-7.5],"scale":[1,6.75,2.5]},{"name":"Leg (1)","mesh":46,"translation":[18.5,3.375,7.5],"scale":[1,6.75,2.5]},{"name":"Leg (3)","mesh":47,"translation":[18.5,3.375,-7.5],"scale":[1,6.75,2.5]},{"name":"Table (6)","children":[52,53,54,55,56],"translation":[0,0,-100]},{"name":"Table Top","mesh":48,"translation":[0,8,0],"scale":[38,2.5,20]},{"name":"Leg","mesh":49,"translation":[-18.5,3.375,7.5],"scale":[1,6.75,2.5]},{"name":"Leg (2)","mesh":50,"translation":[-18.5,3.375,-7.5],"scale":[1,6.75,2.5]},{"name":"Leg (1)","mesh":51,"translation":[18.5,3.375,7.5],"scale":[1,6.75,2.5]},{"name":"Leg (3)","mesh":52,"translation":[18.5,3.375,-7.5],"scale":[1,6.75,2.5]},{"name":"Table (7)","children":[58,59,60,61,62],"translation":[80,0,-100]},{"name":"Table Top","mesh":53,"translation":[0,8,0],"scale":[38,2.5,20]},{"name":"Leg","mesh":54,"translation":[-18.5,3.375,7.5],"scale":[1,6.75,2.5]},{"name":"Leg (2)","mesh":55,"translation":[-18.5,3.375,-7.5],"scale":[1,6.75,2.5]},{"name":"Leg (1)","mesh":56,"translation":[18.5,3.375,7.5],"scale":[1,6.75,2.5]},{"name":"Leg (3)","mesh":57,"translation":[18.5,3.375,-7.5],"scale":[1,6.75,2.5]},{"name":"Table (8)","children":[64,65,66,67,68],"translation":[-80,0,-100]},{"name":"Tables","children":[21,27,33,34,35,36,37,38,39,45,51,57,63,69],"translation":[0,0,0.220001221],"scale":[0.1,0.1,0.1]},{"name":"Classroom (1) 1","children":[2,5,14,15,70],"translation":[0,-1.5,0],"rotation":[0,-1,0,0]}],"extensionsRequired":["KHR_texture_transform"],"extensionsUsed":["KHR_texture_transform"],"buffers":[{"uri":"classroom2.bin","byteLength":8424}],"bufferViews":[{"buffer":0,"byteLength":1200},{"buffer":0,"byteLength":5808,"byteOffset":1200,"byteStride":48},{"buffer":0,"byteLength":72,"byteOffset":7008},{"buffer":0,"byteLength":1344,"byteOffset":7080,"byteStride":56}],"accessors":[{"bufferView":1,"componentType":5126,"count":121,"type":"VEC3","max":[5,1.110223E-16,5],"min":[-5,-1.110223E-16,-5]},{"bufferView":1,"componentType":5126,"count":121,"type":"VEC3","byteOffset":12},{"bufferView":1,"componentType":5126,"count":121,"type":"VEC4","byteOffset":24},{"bufferView":1,"componentType":5126,"count":121,"type":"VEC2","byteOffset":40},{"bufferView":0,"componentType":5123,"count":600,"type":"SCALAR"},{"bufferView":3,"componentType":5126,"count":24,"type":"VEC3","max":[0.5,0.5,0.5],"min":[-0.5,-0.5,-0.5]},{"bufferView":3,"componentType":5126,"count":24,"type":"VEC3","byteOffset":12},{"bufferView":3,"componentType":5126,"count":24,"type":"VEC4","byteOffset":24},{"bufferView":3,"componentType":5126,"count":24,"type":"VEC2","byteOffset":40},{"bufferView":3,"componentType":5126,"count":24,"type":"VEC2","byteOffset":48},{"bufferView":2,"componentType":5123,"count":36,"type":"SCALAR"}],"images":[{"name":"IMG_2","uri":"IMG_2.jpg","mimeType":"image/jpeg"},{"name":"IMG_1","uri":"IMG_1.jpg","mimeType":"image/jpeg"},{"name":"IMG_3","uri":"IMG_3.jpg","mimeType":"image/jpeg"}],"materials":[{"name":"Floor","pbrMetallicRoughness":{"baseColorFactor":[0.8207547,0.5654506,0.2431292,1],"metallicFactor":0.213,"roughnessFactor":0.828,"baseColorTexture":{"index":0,"extensions":{"KHR_texture_transform":{"offset":[0,1],"scale":[1,-1]}}}},"emissiveFactor":[0,0,0]},{"name":"Wall","pbrMetallicRoughness":{"metallicFactor":0,"roughnessFactor":0.5,"baseColorTexture":{"index":1,"extensions":{"KHR_texture_transform":{"offset":[0,1],"scale":[1,-1]}}}},"emissiveFactor":[0,0,0]},{"name":"Black","pbrMetallicRoughness":{"baseColorFactor":[0,0,0,1],"metallicFactor":0,"roughnessFactor":0.5},"emissiveFactor":[0,0,0]},{"name":"Wood","pbrMetallicRoughness":{"baseColorFactor":[0.8207547,0.5654506,0.2431292,1],"metallicFactor":0.213,"roughnessFactor":0.828,"baseColorTexture":{"index":2,"extensions":{"KHR_texture_transform":{"offset":[0,1],"scale":[1,-1]}}}},"emissiveFactor":[0,0,0]}],"meshes":[{"name":"Plane","primitives":[{"attributes":{"POSITION":0,"NORMAL":1,"TANGENT":2,"TEXCOORD_0":3},"indices":4,"material":0}]},{"name":"Cube","primitives":[{"attributes":{"POSITION":5,"NORMAL":6,"TANGENT":7,"TEXCOORD_0":8,"TEXCOORD_1":9},"indices":10,"material":3}]},{"name":"Plane","primitives":[{"attributes":{"POSITION":0,"NORMAL":1,"TANGENT":2,"TEXCOORD_0":3},"indices":4,"material":0}]},{"name":"Plane","primitives":[{"attributes":{"POSITION":0,"NORMAL":1,"TANGENT":2,"TEXCOORD_0":3},"indices":4,"material":1}]},{"name":"Plane","primitives":[{"attributes":{"POSITION":0,"NORMAL":1,"TANGENT":2,"TEXCOORD_0":3},"indices":4,"material":1}]},{"name":"Plane","primitives":[{"attributes":{"POSITION":0,"NORMAL":1,"TANGENT":2,"TEXCOORD_0":3},"indices":4,"material":1}]},{"name":"Plane","primitives":[{"attributes":{"POSITION":0,"NORMAL":1,"TANGENT":2,"TEXCOORD_0":3},"indices":4,"material":1}]},{"name":"Plane","primitives":[{"attributes":{"POSITION":0,"NORMAL":1,"TANGENT":2,"TEXCOORD_0":3},"indices":4,"material":1}]},{"name":"Plane","primitives":[{"attributes":{"POSITION":0,"NORMAL":1,"TANGENT":2,"TEXCOORD_0":3},"indices":4,"material":1}]},{"name":"Plane","primitives":[{"attributes":{"POSITION":0,"NORMAL":1,"TANGENT":2,"TEXCOORD_0":3},"indices":4,"material":1}]},{"name":"Plane","primitives":[{"attributes":{"POSITION":0,"NORMAL":1,"TANGENT":2,"TEXCOORD_0":3},"indices":4,"material":1}]},{"name":"Plane","primitives":[{"attributes":{"POSITION":0,"NORMAL":1,"TANGENT":2,"TEXCOORD_0":3},"indices":4,"material":1}]},{"name":"Plane","primitives":[{"attributes":{"POSITION":0,"NORMAL":1,"TANGENT":2,"TEXCOORD_0":3},"indices":4,"material":1}]},{"name":"Plane","primitives":[{"attributes":{"POSITION":0,"NORMAL":1,"TANGENT":2,"TEXCOORD_0":3},"indices":4,"material":2}]},{"name":"Cube","primitives":[{"attributes":{"POSITION":5,"NORMAL":6,"TANGENT":7,"TEXCOORD_0":8,"TEXCOORD_1":9},"indices":10,"material":3}]},{"name":"Cube","primitives":[{"attributes":{"POSITION":5,"NORMAL":6,"TANGENT":7,"TEXCOORD_0":8,"TEXCOORD_1":9},"indices":10,"material":3}]},{"name":"Cube","primitives":[{"attributes":{"POSITION":5,"NORMAL":6,"TANGENT":7,"TEXCOORD_0":8,"TEXCOORD_1":9},"indices":10,"material":3}]},{"name":"Cube","primitives":[{"attributes":{"POSITION":5,"NORMAL":6,"TANGENT":7,"TEXCOORD_0":8,"TEXCOORD_1":9},"indices":10,"material":3}]},{"name":"Cube","primitives":[{"attributes":{"POSITION":5,"NORMAL":6,"TANGENT":7,"TEXCOORD_0":8,"TEXCOORD_1":9},"indices":10,"material":3}]},{"name":"Cube","primitives":[{"attributes":{"POSITION":5,"NORMAL":6,"TANGENT":7,"TEXCOORD_0":8,"TEXCOORD_1":9},"indices":10,"material":3}]},{"name":"Cube","primitives":[{"attributes":{"POSITION":5,"NORMAL":6,"TANGENT":7,"TEXCOORD_0":8,"TEXCOORD_1":9},"indices":10,"material":3}]},{"name":"Cube","primitives":[{"attributes":{"POSITION":5,"NORMAL":6,"TANGENT":7,"TEXCOORD_0":8,"TEXCOORD_1":9},"indices":10,"material":3}]},{"name":"Cube","primitives":[{"attributes":{"POSITION":5,"NORMAL":6,"TANGENT":7,"TEXCOORD_0":8,"TEXCOORD_1":9},"indices":10,"material":3}]},{"name":"Cube","primitives":[{"attributes":{"POSITION":5,"NORMAL":6,"TANGENT":7,"TEXCOORD_0":8,"TEXCOORD_1":9},"indices":10,"material":3}]},{"name":"Cube","primitives":[{"attributes":{"POSITION":5,"NORMAL":6,"TANGENT":7,"TEXCOORD_0":8,"TEXCOORD_1":9},"indices":10,"material":3}]},{"name":"Cube","primitives":[{"attributes":{"POSITION":5,"NORMAL":6,"TANGENT":7,"TEXCOORD_0":8,"TEXCOORD_1":9},"indices":10,"material":3}]},{"name":"Cube","primitives":[{"attributes":{"POSITION":5,"NORMAL":6,"TANGENT":7,"TEXCOORD_0":8,"TEXCOORD_1":9},"indices":10,"material":3}]},{"name":"Cube","primitives":[{"attributes":{"POSITION":5,"NORMAL":6,"TANGENT":7,"TEXCOORD_0":8,"TEXCOORD_1":9},"indices":10,"material":3}]},{"name":"Cube","primitives":[{"attributes":{"POSITION":5,"NORMAL":6,"TANGENT":7,"TEXCOORD_0":8,"TEXCOORD_1":9},"indices":10,"material":3}]},{"name":"Cube","primitives":[{"attributes":{"POSITION":5,"NORMAL":6,"TANGENT":7,"TEXCOORD_0":8,"TEXCOORD_1":9},"indices":10,"material":3}]},{"name":"Cube","primitives":[{"attributes":{"POSITION":5,"NORMAL":6,"TANGENT":7,"TEXCOORD_0":8,"TEXCOORD_1":9},"indices":10,"material":3}]},{"name":"Cube","primitives":[{"attributes":{"POSITION":5,"NORMAL":6,"TANGENT":7,"TEXCOORD_0":8,"TEXCOORD_1":9},"indices":10,"material":3}]},{"name":"Cube","primitives":[{"attributes":{"POSITION":5,"NORMAL":6,"TANGENT":7,"TEXCOORD_0":8,"TEXCOORD_1":9},"indices":10,"material":3}]},{"name":"Cube","primitives":[{"attributes":{"POSITION":5,"NORMAL":6,"TANGENT":7,"TEXCOORD_0":8,"TEXCOORD_1":9},"indices":10,"material":3}]},{"name":"Cube","primitives":[{"attributes":{"POSITION":5,"NORMAL":6,"TANGENT":7,"TEXCOORD_0":8,"TEXCOORD_1":9},"indices":10,"material":3}]},{"name":"Cube","primitives":[{"attributes":{"POSITION":5,"NORMAL":6,"TANGENT":7,"TEXCOORD_0":8,"TEXCOORD_1":9},"indices":10,"material":3}]},{"name":"Cube","primitives":[{"attributes":{"POSITION":5,"NORMAL":6,"TANGENT":7,"TEXCOORD_0":8,"TEXCOORD_1":9},"indices":10,"material":3}]},{"name":"Cube","primitives":[{"attributes":{"POSITION":5,"NORMAL":6,"TANGENT":7,"TEXCOORD_0":8,"TEXCOORD_1":9},"indices":10,"material":3}]},{"name":"Cube","primitives":[{"attributes":{"POSITION":5,"NORMAL":6,"TANGENT":7,"TEXCOORD_0":8,"TEXCOORD_1":9},"indices":10,"material":3}]},{"name":"Cube","primitives":[{"attributes":{"POSITION":5,"NORMAL":6,"TANGENT":7,"TEXCOORD_0":8,"TEXCOORD_1":9},"indices":10,"material":3}]},{"name":"Cube","primitives":[{"attributes":{"POSITION":5,"NORMAL":6,"TANGENT":7,"TEXCOORD_0":8,"TEXCOORD_1":9},"indices":10,"material":3}]},{"name":"Cube","primitives":[{"attributes":{"POSITION":5,"NORMAL":6,"TANGENT":7,"TEXCOORD_0":8,"TEXCOORD_1":9},"indices":10,"material":3}]},{"name":"Cube","primitives":[{"attributes":{"POSITION":5,"NORMAL":6,"TANGENT":7,"TEXCOORD_0":8,"TEXCOORD_1":9},"indices":10,"material":3}]},{"name":"Cube","primitives":[{"attributes":{"POSITION":5,"NORMAL":6,"TANGENT":7,"TEXCOORD_0":8,"TEXCOORD_1":9},"indices":10,"material":3}]},{"name":"Cube","primitives":[{"attributes":{"POSITION":5,"NORMAL":6,"TANGENT":7,"TEXCOORD_0":8,"TEXCOORD_1":9},"indices":10,"material":3}]},{"name":"Cube","primitives":[{"attributes":{"POSITION":5,"NORMAL":6,"TANGENT":7,"TEXCOORD_0":8,"TEXCOORD_1":9},"indices":10,"material":3}]},{"name":"Cube","primitives":[{"attributes":{"POSITION":5,"NORMAL":6,"TANGENT":7,"TEXCOORD_0":8,"TEXCOORD_1":9},"indices":10,"material":3}]},{"name":"Cube","primitives":[{"attributes":{"POSITION":5,"NORMAL":6,"TANGENT":7,"TEXCOORD_0":8,"TEXCOORD_1":9},"indices":10,"material":3}]},{"name":"Cube","primitives":[{"attributes":{"POSITION":5,"NORMAL":6,"TANGENT":7,"TEXCOORD_0":8,"TEXCOORD_1":9},"indices":10,"material":3}]},{"name":"Cube","primitives":[{"attributes":{"POSITION":5,"NORMAL":6,"TANGENT":7,"TEXCOORD_0":8,"TEXCOORD_1":9},"indices":10,"material":3}]},{"name":"Cube","primitives":[{"attributes":{"POSITION":5,"NORMAL":6,"TANGENT":7,"TEXCOORD_0":8,"TEXCOORD_1":9},"indices":10,"material":3}]},{"name":"Cube","primitives":[{"attributes":{"POSITION":5,"NORMAL":6,"TANGENT":7,"TEXCOORD_0":8,"TEXCOORD_1":9},"indices":10,"material":3}]},{"name":"Cube","primitives":[{"attributes":{"POSITION":5,"NORMAL":6,"TANGENT":7,"TEXCOORD_0":8,"TEXCOORD_1":9},"indices":10,"material":3}]},{"name":"Cube","primitives":[{"attributes":{"POSITION":5,"NORMAL":6,"TANGENT":7,"TEXCOORD_0":8,"TEXCOORD_1":9},"indices":10,"material":3}]},{"name":"Cube","primitives":[{"attributes":{"POSITION":5,"NORMAL":6,"TANGENT":7,"TEXCOORD_0":8,"TEXCOORD_1":9},"indices":10,"material":3}]},{"name":"Cube","primitives":[{"attributes":{"POSITION":5,"NORMAL":6,"TANGENT":7,"TEXCOORD_0":8,"TEXCOORD_1":9},"indices":10,"material":3}]},{"name":"Cube","primitives":[{"attributes":{"POSITION":5,"NORMAL":6,"TANGENT":7,"TEXCOORD_0":8,"TEXCOORD_1":9},"indices":10,"material":3}]},{"name":"Cube","primitives":[{"attributes":{"POSITION":5,"NORMAL":6,"TANGENT":7,"TEXCOORD_0":8,"TEXCOORD_1":9},"indices":10,"material":3}]}],"scene":0,"scenes":[{"name":"Classroom (1) 1","nodes":[71]}],"textures":[{"source":0},{"source":1},{"source":2}]}