{"asset":{"version":"2.0","generator":"Unity 2020.3.28f1 glTFast 4.5.0"},"nodes":[{"name":"Cube (1)","mesh":0,"scale":[0.40154466,0.0977402255,0.22314021]}],"buffers":[{"uri":"cube3.bin","byteLength":1416}],"bufferViews":[{"buffer":0,"byteLength":72},{"buffer":0,"byteLength":1344,"byteOffset":72,"byteStride":56}],"accessors":[{"bufferView":1,"componentType":5126,"count":24,"type":"VEC3","max":[0.5,0.5,0.5],"min":[-0.5,-0.5,-0.5]},{"bufferView":1,"componentType":5126,"count":24,"type":"VEC3","byteOffset":12},{"bufferView":1,"componentType":5126,"count":24,"type":"VEC4","byteOffset":24},{"bufferView":1,"componentType":5126,"count":24,"type":"VEC2","byteOffset":40},{"bufferView":1,"componentType":5126,"count":24,"type":"VEC2","byteOffset":48},{"bufferView":0,"componentType":5123,"count":36,"type":"SCALAR"}],"materials":[{"name":"Default-Material","pbrMetallicRoughness":{"metallicFactor":0,"roughnessFactor":0.5},"emissiveFactor":[0,0,0]}],"meshes":[{"name":"Cube","primitives":[{"attributes":{"POSITION":0,"NORMAL":1,"TANGENT":2,"TEXCOORD_0":3,"TEXCOORD_1":4},"indices":5,"material":0}]}],"scene":0,"scenes":[{"name":"Cube (1)","nodes":[0]}]}